<svg width="162" height="162" viewBox="0 0 162 162" fill="none" xmlns="http://www.w3.org/2000/svg">
<path d="M80.9996 0C36.147 0 0 36.147 0 80.9996C0 125.852 36.3363 161.999 80.9996 161.999C125.852 161.999 161.999 125.663 161.999 80.9996C162.189 36.147 125.852 0 80.9996 0Z" fill="#830051"/>
<path d="M89.9996 84.7456H70.9867C62.863 84.7456 56.1221 91.4865 56.1221 99.6102V109.635H58.7147V99.6102C58.7147 92.8693 64.2458 87.3383 70.9867 87.3383H89.9996C96.7405 87.3383 102.272 92.8693 102.272 99.6102V109.635H104.864V99.6102C104.864 91.3137 98.1233 84.7456 89.9996 84.7456Z" fill="white"/>
<path d="M80.4964 81.1174C88.793 81.1174 95.5339 74.3765 95.5339 66.0799C95.5339 57.7834 88.793 51.0425 80.4964 51.0425C72.1999 51.0425 65.459 57.7834 65.459 66.0799C65.459 74.3765 72.1999 81.1174 80.4964 81.1174ZM80.4964 53.808C87.4102 53.808 92.9412 59.339 92.9412 66.2528C92.9412 73.1666 87.4102 78.6976 80.4964 78.6976C73.5827 78.6976 68.0517 73.1666 68.0517 66.2528C68.0517 59.339 73.5827 53.808 80.4964 53.808Z" fill="white"/>
<path d="M125.95 88.3726H110.049C109.53 88.3726 109.185 88.3726 108.839 88.3726C109.357 89.2368 109.703 89.9282 110.049 90.9652H125.95C131.481 90.9652 136.148 95.4592 136.148 101.163V109.632H138.741V101.163C138.741 94.0764 133.037 88.3726 125.95 88.3726Z" fill="white"/>
<path d="M117.999 85.7885C125.086 85.7885 130.79 80.0846 130.79 72.998C130.79 65.9114 125.086 60.2075 117.999 60.2075C110.913 60.2075 105.209 65.9114 105.209 72.998C105.209 80.0846 110.913 85.7885 117.999 85.7885ZM117.999 62.8002C123.703 62.8002 128.197 67.467 128.197 72.998C128.197 78.529 123.53 83.1958 117.999 83.1958C112.468 83.1958 107.802 78.529 107.802 72.998C107.802 67.467 112.296 62.8002 117.999 62.8002Z" fill="white"/>
<path d="M35.0366 88.3726C27.95 88.3726 22.2461 94.0764 22.2461 101.163V109.632H24.8388V101.163C24.8388 95.632 29.3327 90.9652 35.0366 90.9652H50.9383C51.284 90.101 51.8025 89.2368 52.1482 88.3726C51.8025 88.3726 51.284 88.3726 50.9383 88.3726H35.0366Z" fill="white"/>
<path d="M42.9868 60.2075C35.9002 60.2075 30.1963 65.9114 30.1963 72.998C30.1963 80.0846 35.9002 85.7885 42.9868 85.7885C50.0734 85.7885 55.7773 80.0846 55.7773 72.998C55.7773 65.9114 50.0734 60.2075 42.9868 60.2075ZM42.9868 83.1958C37.2829 83.1958 32.789 78.529 32.789 72.998C32.789 67.467 37.4558 62.8002 42.9868 62.8002C48.5178 62.8002 53.1846 67.467 53.1846 72.998C53.1846 78.529 48.6906 83.1958 42.9868 83.1958Z" fill="white"/>
</svg>
