<svg width="153" height="153" viewBox="0 0 153 153" fill="none" xmlns="http://www.w3.org/2000/svg">
<g clip-path="url(#clip0_77_109)">
<path d="M76.5 153C118.75 153 153 118.75 153 76.5C153 34.2502 118.75 0 76.5 0C34.2502 0 0 34.2502 0 76.5C0 118.75 34.2502 153 76.5 153Z" fill="white"/>
<path d="M79.9509 32.8059C79.4854 32.8059 79.0402 32.5327 78.8378 32.0824L76.3941 26.5271C76.1259 25.9149 76.4042 25.1964 77.0164 24.9283C77.6286 24.6601 78.3471 24.9384 78.6152 25.5506L81.059 31.1059C81.3271 31.7181 81.0488 32.4366 80.4366 32.7047C80.2798 32.7756 80.1128 32.8059 79.9459 32.8059H79.9509Z" fill="#7E2755"/>
<path d="M90.551 53.3831C90.1108 53.3831 89.6807 53.1403 89.4682 52.7203L81.2111 36.4894C80.9075 35.8923 81.1453 35.1587 81.7424 34.8551C82.3394 34.5516 83.073 34.7894 83.3766 35.3864L91.6337 51.6173C91.9373 52.2144 91.6995 52.948 91.1025 53.2516C90.9254 53.3426 90.7382 53.3831 90.551 53.3831Z" fill="#7E2755"/>
<path d="M65.2635 71.4557C65.1471 71.4557 65.0257 71.4405 64.9093 71.4C64.2668 71.2027 63.9076 70.5247 64.1049 69.8822L65.0662 66.7453C65.2635 66.1027 65.9415 65.7435 66.5841 65.9408C67.2266 66.1381 67.5858 66.8161 67.3885 67.4587L66.4272 70.5956C66.2653 71.1167 65.7846 71.4557 65.2686 71.4557H65.2635Z" fill="#7E2755"/>
<path d="M68.3348 61.4176C68.2184 61.4176 68.097 61.4024 67.9806 61.367C67.3381 61.1697 66.9788 60.4917 67.1762 59.8492L69.114 53.5197C69.3113 52.8771 69.9893 52.5179 70.6318 52.7152C71.2744 52.9126 71.6336 53.5905 71.4363 54.2331L69.4985 60.5626C69.3366 61.0837 68.8559 61.4227 68.3399 61.4227L68.3348 61.4176Z" fill="#7E2755"/>
<path d="M67.1659 65.2374C67.0495 65.2374 66.9281 65.2222 66.8117 65.1817C66.1691 64.9844 65.8099 64.3064 66.0072 63.6639L66.1641 63.1427C66.3614 62.5002 67.0394 62.141 67.6819 62.3383C68.3245 62.5356 68.6837 63.2136 68.4864 63.8561L68.3295 64.3773C68.1676 64.8984 67.687 65.2374 67.1709 65.2374H67.1659Z" fill="#7E2755"/>
<path d="M95.4786 56.0088C95.4786 56.0088 95.428 56.0088 95.4027 56.0088L70.2113 54.4657C69.7104 54.4353 69.2854 54.1014 69.1286 53.6258L65.1619 41.3312C64.9646 40.7139 65.2834 40.0562 65.8753 39.8285C65.8753 39.6464 65.9259 39.4642 66.017 39.2922C66.3307 38.7002 67.0643 38.4725 67.6563 38.7812L96.0453 53.7219C96.5512 53.9901 96.8042 54.5719 96.6473 55.1234C96.5006 55.6496 96.02 56.0088 95.4786 56.0088ZM71.1878 52.0928L89.9131 53.2413L67.803 41.6044L71.1878 52.0928Z" fill="#7E2755"/>
<path d="M89.2959 71.0409C89.0126 71.0409 88.7242 70.9397 88.4965 70.7373L70.4998 54.9213C69.9939 54.476 69.9483 53.712 70.3885 53.2061C70.8337 52.7052 71.5977 52.6546 72.1037 53.0948L90.1004 68.9108C90.6064 69.3561 90.6519 70.1201 90.2117 70.626C89.9739 70.8992 89.6349 71.0409 89.301 71.0409H89.2959Z" fill="#7E2755"/>
<path d="M58.0382 55.0931C57.6284 55.0931 57.2489 54.8856 57.0212 54.5416C56.7834 54.1722 56.7581 53.7017 56.9605 53.3172L64.2715 39.363C64.3019 39.3073 64.3322 39.2567 64.3676 39.2062L75.5138 24.1035C75.9135 23.5621 76.6724 23.4508 77.2138 23.8454C77.7551 24.2451 77.8665 25.0041 77.4718 25.5454L66.3813 40.5722L60.1227 52.5228L69.4828 51.8904C70.1507 51.8448 70.7325 52.3508 70.7781 53.0187C70.8236 53.6865 70.3176 54.2684 69.6498 54.3139L58.1293 55.088C58.104 55.088 58.0736 55.088 58.0483 55.088L58.0382 55.0931Z" fill="#7E2755"/>
<path d="M77.2039 75.5893C77.1178 75.5893 77.0369 75.5792 76.9559 75.564C76.8699 75.5843 76.7789 75.5944 76.6827 75.5893L73.6167 75.5236C71.097 75.4679 68.633 74.5572 66.6851 72.9584L62.5667 69.5837C60.7149 68.0658 59.4146 66.037 58.8024 63.7248L55.3467 50.6256C54.8104 48.5968 54.8509 46.4667 55.458 44.4581L58.4077 34.7185C59.3893 31.4753 61.747 28.8697 64.8687 27.5593L72.1292 24.5185C73.6419 23.8861 75.2408 23.5622 76.88 23.5572H76.9509C78.5952 23.5521 80.2345 23.8759 81.7726 24.5185L89.033 27.5593C92.1598 28.8646 94.5125 31.4753 95.494 34.7185L98.4437 44.4581C99.0509 46.4667 99.0914 48.5968 98.555 50.6256L95.0994 63.7248C94.4872 66.042 93.1869 68.0658 91.3351 69.5837L87.2167 72.9584C85.2687 74.5572 82.8047 75.4679 80.2851 75.5236L77.2241 75.5893C77.2241 75.5893 77.2039 75.5893 77.1988 75.5893H77.2039ZM76.9914 25.9453H76.9003C75.5696 25.9453 74.2794 26.2134 73.0601 26.7244L65.7997 29.7652C63.3357 30.7974 61.4789 32.8515 60.7047 35.4066L57.755 45.1462C57.2744 46.7298 57.244 48.4096 57.669 50.0084L61.1247 63.1075C61.6053 64.934 62.6324 66.5328 64.0946 67.7268L68.2131 71.1015C69.7512 72.3614 71.689 73.0798 73.6774 73.1253L76.7434 73.1911C76.8193 73.1911 76.8952 73.2012 76.9661 73.2164C77.0369 73.2012 77.1128 73.1911 77.1887 73.1911L80.2497 73.1253C82.2381 73.0798 84.1809 72.3664 85.714 71.1015L89.8324 67.7268C91.2946 66.5277 92.3167 64.9289 92.8024 63.1075L96.258 50.0084C96.678 48.4096 96.6476 46.7298 96.172 45.1462L93.2223 35.4066C92.4482 32.8515 90.5914 30.7923 88.1274 29.7652L80.8669 26.7244C79.6375 26.2084 78.3372 25.9453 77.0015 25.9453H76.9914Z" fill="#7E2755"/>
<path d="M123.164 114.047C122.815 114.047 122.466 113.895 122.228 113.607L115.939 106.002C115.514 105.486 115.585 104.722 116.101 104.292C116.617 103.862 117.381 103.938 117.811 104.454L124.1 112.058C124.525 112.575 124.455 113.339 123.939 113.769C123.711 113.956 123.438 114.047 123.164 114.047Z" fill="#7E2755"/>
<path d="M114.053 103.027C113.703 103.027 113.354 102.875 113.116 102.587L110.592 99.5311C110.167 99.015 110.238 98.251 110.754 97.8209C111.27 97.3909 112.034 97.4668 112.464 97.9828L114.989 101.039C115.414 101.555 115.343 102.319 114.827 102.749C114.599 102.936 114.326 103.027 114.053 103.027Z" fill="#7E2755"/>
<path d="M105.972 93.2521C105.623 93.2521 105.274 93.1003 105.036 92.8119L99.9414 86.6443C99.5164 86.1283 99.5872 85.3643 100.103 84.9342C100.619 84.5042 101.383 84.5801 101.813 85.0961L106.908 91.2637C107.333 91.7798 107.263 92.5437 106.746 92.9738C106.519 93.161 106.246 93.2521 105.972 93.2521Z" fill="#7E2755"/>
<path d="M109.048 96.9757C108.699 96.9757 108.35 96.8239 108.112 96.5355L107.692 96.0296C107.267 95.5135 107.338 94.7495 107.854 94.3195C108.37 93.8894 109.134 93.9653 109.564 94.4814L109.984 94.9873C110.409 95.5034 110.339 96.2674 109.822 96.6974C109.595 96.8846 109.322 96.9757 109.048 96.9757Z" fill="#7E2755"/>
<path d="M125.71 115.752C125.249 115.752 124.814 115.489 124.607 115.048L113.896 91.9061C113.875 91.8605 113.855 91.8099 113.84 91.7593C113.435 90.459 111.32 88.2278 110.308 88.0305C110.268 88.0204 110.222 88.0102 110.182 88.0001L100.387 84.9695C100.245 84.9239 100.103 84.9138 99.9567 84.9088L90.632 85.015C90.379 85.0251 90.1159 84.934 89.9034 84.7823C89.1495 84.2308 87.7379 80.5778 87.4293 77.9013C87.1257 75.3058 87.6064 72.0323 87.7835 70.8028C87.8088 70.6409 87.8239 70.5195 87.8341 70.4537C87.8695 69.8162 88.4007 69.3052 89.0483 69.3052C89.696 69.3052 90.2626 69.8465 90.2626 70.5195C90.2626 70.651 90.2474 70.7674 90.1918 71.1519C90.0248 72.2954 89.5796 75.3412 89.8477 77.623C90.0855 79.662 90.89 81.6707 91.3251 82.5814L99.9364 82.4802C100.346 82.4802 100.736 82.5358 101.115 82.6522L110.855 85.6677C112.98 86.1382 115.525 89.1436 116.137 90.9599L126.818 114.036C127.101 114.644 126.833 115.367 126.226 115.65C126.059 115.726 125.887 115.762 125.715 115.762L125.71 115.752Z" fill="#7E2755"/>
<path d="M79.1459 104.535C78.8929 104.535 78.6349 104.454 78.4224 104.292L52.5581 85.0155C52.0218 84.6157 51.9105 83.8518 52.3102 83.3155C52.7099 82.7791 53.4739 82.6678 54.0102 83.0675L79.07 101.742L98.7718 83.7354C99.2677 83.2851 100.037 83.3154 100.487 83.8113C100.937 84.3071 100.907 85.0762 100.411 85.5265L79.9706 104.211C79.7379 104.424 79.4444 104.53 79.151 104.53L79.1459 104.535Z" fill="#7E2755"/>
<path d="M65.2123 120.67C65.1364 120.67 65.0554 120.665 64.9795 120.649C64.5495 120.563 64.2004 120.255 64.0587 119.84L59.328 105.678L53.3021 86.027C53.1048 85.3845 53.4641 84.7065 54.1066 84.5092C54.7492 84.3119 55.4271 84.6711 55.6245 85.3136L61.6402 104.934L65.6828 117.037L78.5138 102.071C78.9489 101.56 79.7179 101.504 80.2239 101.939C80.7349 102.374 80.7905 103.143 80.3554 103.649L66.1331 120.245C65.9004 120.518 65.5614 120.67 65.2123 120.67Z" fill="#7E2755"/>
<path d="M92.281 105.749C92.1342 105.749 91.9875 105.724 91.8458 105.668C91.2185 105.425 90.9048 104.727 91.1476 104.1L98.8988 83.902C99.1417 83.2746 99.8399 82.9609 100.467 83.2038C101.095 83.4466 101.408 84.1449 101.165 84.7722L93.4143 104.97C93.2271 105.451 92.7667 105.749 92.281 105.749Z" fill="#7E2755"/>
<path d="M125.568 116.061C125.446 116.061 125.32 116.04 125.198 116L92.2 105.405C91.5625 105.198 91.2084 104.515 91.4158 103.877C91.6182 103.24 92.3063 102.886 92.9438 103.093L125.942 113.688C126.579 113.895 126.934 114.578 126.726 115.216C126.559 115.732 126.084 116.061 125.573 116.061H125.568Z" fill="#7E2755"/>
<path d="M65.3539 120.831C64.934 120.831 64.5191 120.609 64.2965 120.219C63.9626 119.637 64.17 118.894 64.7518 118.565L92.2504 102.916C92.8322 102.582 93.576 102.789 93.9048 103.371C94.2387 103.953 94.0313 104.697 93.4495 105.025L65.951 120.675C65.7637 120.781 65.5563 120.831 65.3539 120.831Z" fill="#7E2755"/>
<path d="M29.9479 116.075C29.4571 116.075 28.9917 115.772 28.8095 115.286C28.5768 114.659 28.8955 113.961 29.5229 113.723L58.9289 102.759C59.5562 102.526 60.2545 102.845 60.4923 103.472C60.725 104.1 60.4062 104.798 59.7789 105.036L30.3729 116C30.2312 116.05 30.0896 116.075 29.9479 116.075Z" fill="#7E2755"/>
<path d="M50.0235 90.6312C49.7655 90.6312 49.5075 90.5502 49.2899 90.3833C48.7536 89.9785 48.6524 89.2145 49.0572 88.6833L51.5161 85.4452C51.9209 84.9089 52.6848 84.8077 53.2161 85.2124C53.7524 85.6172 53.8536 86.3812 53.4488 86.9124L50.9899 90.1505C50.7521 90.4642 50.3878 90.6312 50.0235 90.6312Z" fill="#7E2755"/>
<path d="M42.9757 99.9104C42.7176 99.9104 42.4596 99.8294 42.242 99.6624C41.7057 99.2577 41.6045 98.4937 42.0093 97.9624L46.2846 92.3362C46.6894 91.805 47.4534 91.6987 47.9846 92.1035C48.5209 92.5083 48.6221 93.2723 48.2173 93.8035L43.942 99.4297C43.7043 99.7434 43.34 99.9104 42.9757 99.9104Z" fill="#7E2755"/>
<path d="M39.7784 104.12C39.5204 104.12 39.2623 104.039 39.0448 103.872C38.5085 103.467 38.4073 102.703 38.812 102.172L39.1561 101.722C39.5609 101.185 40.3248 101.084 40.8561 101.489C41.3924 101.894 41.4936 102.658 41.0888 103.189L40.7448 103.639C40.507 103.953 40.1427 104.12 39.7784 104.12Z" fill="#7E2755"/>
<path d="M32.2345 114.052C31.9764 114.052 31.7184 113.971 31.5008 113.804C30.9645 113.399 30.8633 112.635 31.2681 112.104L36.0089 105.866C36.4136 105.329 37.1776 105.228 37.7089 105.633C38.2401 106.038 38.3464 106.802 37.9416 107.333L33.2008 113.571C32.963 113.885 32.5988 114.052 32.2345 114.052Z" fill="#7E2755"/>
<path d="M29.8666 116.061C29.7199 116.061 29.5732 116.035 29.4264 115.98C28.799 115.737 28.4904 115.034 28.7333 114.411L37.7949 90.9906C38.3868 89.1844 40.947 86.1335 43.0922 85.6579L52.8318 82.6424C53.2163 82.5261 53.616 82.4653 54.0107 82.4704L62.622 82.5716C63.0571 81.6609 63.8615 79.6522 64.0943 77.6133C64.3574 75.3314 63.9172 72.2906 63.7502 71.1421C63.6946 70.7576 63.6794 70.6412 63.6794 70.5097C63.6794 69.8368 64.2208 69.2954 64.8937 69.2954C65.5666 69.2954 66.0726 69.8014 66.108 70.4439C66.113 70.5097 66.1333 70.6311 66.1586 70.793C66.3357 72.0225 66.8163 75.296 66.5127 77.8915C66.1991 80.568 64.7925 84.221 64.0386 84.7725C63.8261 84.9293 63.5732 85.0153 63.3101 85.0052L53.9854 84.899C53.8386 84.899 53.6919 84.9192 53.5502 84.9597L43.755 87.9904C43.7145 88.0055 43.6741 88.0156 43.6285 88.0207C42.6166 88.218 40.5017 90.4493 40.097 91.7496C40.0868 91.7749 40.0818 91.8002 40.0717 91.8255L30.9949 115.276C30.8077 115.757 30.3473 116.05 29.8615 116.05L29.8666 116.061Z" fill="#7E2755"/>
<path d="M66.6194 94.5928C66.2247 94.5928 65.8402 94.4005 65.6074 94.0514C65.2381 93.4948 65.3848 92.741 65.9464 92.3666L87.7277 77.8457C88.2842 77.4764 89.0381 77.6231 89.4125 78.1847C89.7819 78.7413 89.6351 79.4951 89.0735 79.8695L67.2923 94.3904C67.0848 94.527 66.8521 94.5928 66.6194 94.5928Z" fill="#7E2755"/>
</g>
<defs>
<clipPath id="clip0_77_109">
<rect width="153" height="153" fill="white"/>
</clipPath>
</defs>
</svg>
