<svg width="195" height="195" viewBox="0 0 195 195" fill="none" xmlns="http://www.w3.org/2000/svg">
<g clip-path="url(#clip0_81_2205)">
<g clip-path="url(#clip1_81_2205)">
<path d="M96.5794 12.4468C49.9917 12.4468 12.4463 49.9921 12.4463 96.5798C12.4463 143.168 50.1882 180.713 96.5794 180.713C143.167 180.713 180.712 142.971 180.712 96.5798C180.909 49.9921 143.167 12.4468 96.5794 12.4468Z" fill="#830051"/>
<path d="M158.977 87.2836C154.824 85.5176 150.017 87.4144 148.251 91.5676C147.597 93.1047 147.433 94.7071 147.728 96.2441L128.237 104.027C127.354 102.687 126.111 101.64 124.64 101.019C122.645 100.168 120.421 100.136 118.393 100.921C118.099 101.051 117.805 101.215 117.51 101.378L108.942 91.2079C109.367 90.6519 109.76 90.096 110.054 89.4092C110.904 87.4144 110.937 85.1906 110.152 83.163C109.335 81.1354 107.798 79.533 105.803 78.6827C103.808 77.8325 101.584 77.7998 99.5565 78.5846C97.5289 79.4022 95.9265 80.9392 95.0762 82.9341C94.4222 84.4384 94.2587 86.0409 94.553 87.6106L75.0622 95.3938C74.1792 94.053 72.9365 93.0065 71.4649 92.3852C69.4373 91.5349 67.2462 91.5022 65.2186 92.2871C63.1911 93.1047 61.5886 94.6417 60.7383 96.6366C60.2805 97.683 60.0843 98.7949 60.0843 99.8741L43.8964 105.172C43.1116 103.308 41.6399 101.738 39.6451 100.888C35.5245 99.122 30.6845 101.051 28.9186 105.172C27.1526 109.325 29.0494 114.133 33.2026 115.898C34.2491 116.356 35.3283 116.553 36.4075 116.553C39.5797 116.553 42.621 114.688 43.9291 111.614C44.387 110.568 44.5832 109.456 44.5832 108.377L60.6402 103.079C61.4578 105.008 62.9621 106.513 64.8916 107.363C65.9381 107.821 67.0173 108.05 68.1292 108.05C69.143 108.05 70.1894 107.854 71.1705 107.461C73.1981 106.644 74.8005 105.107 75.6508 103.112C76.3049 101.607 76.4684 100.005 76.174 98.4352L95.6649 90.6519C96.5479 91.9928 97.7906 93.0392 99.2622 93.6606C100.309 94.1184 101.388 94.3147 102.467 94.3147C103.841 94.3147 105.181 93.8895 106.359 93.2682L114.927 103.471C114.502 104.027 114.109 104.616 113.815 105.27C112.049 109.423 113.946 114.231 118.099 115.997C119.145 116.454 120.225 116.651 121.304 116.651C124.476 116.651 127.485 114.787 128.825 111.713C129.48 110.208 129.643 108.606 129.349 107.036L148.84 99.2528C149.69 100.561 150.9 101.607 152.437 102.294C153.483 102.752 154.563 102.948 155.642 102.948C158.814 102.948 161.823 101.084 163.163 98.0101C165.027 93.8568 163.131 89.0495 158.977 87.2836ZM40.9532 110.339C39.874 112.824 36.9962 113.969 34.5107 112.923C32.0253 111.843 30.8807 108.965 31.9272 106.48C32.7121 104.616 34.5435 103.504 36.4402 103.504C37.0943 103.504 37.7483 103.635 38.3697 103.897C40.8551 104.976 41.9997 107.854 40.9532 110.339ZM72.6422 101.804C72.1189 103.014 71.1705 103.929 69.9605 104.42C68.7505 104.91 67.4097 104.878 66.1997 104.387C64.9897 103.864 64.074 102.915 63.5835 101.705C63.0929 100.495 63.1257 99.1547 63.6489 97.9447C64.1721 96.7347 65.1205 95.819 66.3305 95.3284C66.9192 95.0995 67.5405 94.9687 68.1619 94.9687C68.8159 94.9687 69.47 95.0995 70.0913 95.3611C71.2686 95.8844 72.1843 96.8001 72.6749 98.0101C72.6749 98.0428 72.6749 98.0428 72.6749 98.0755C72.6749 98.1082 72.7076 98.1082 72.7076 98.1082C73.1981 99.3182 73.1654 100.626 72.6422 101.804ZM107.013 88.1011C106.489 89.3111 105.541 90.2268 104.331 90.7174C103.121 91.2079 101.78 91.1752 100.57 90.6846C99.393 90.1614 98.4773 89.2457 97.9868 88.0357C97.9868 88.003 97.9868 88.003 97.9868 87.9703C97.9868 87.9376 97.9541 87.9376 97.9541 87.9049C97.4962 86.6949 97.5289 85.3868 98.0195 84.2095C98.5427 82.9995 99.4911 82.0838 100.701 81.5933C101.29 81.3644 101.911 81.2336 102.532 81.2336C103.187 81.2336 103.841 81.3644 104.462 81.626C105.672 82.1492 106.588 83.0976 107.078 84.3076C107.569 85.5176 107.536 86.8911 107.013 88.1011ZM125.882 110.437C124.803 112.923 121.925 114.067 119.44 113.021C118.23 112.497 117.314 111.549 116.824 110.339C116.333 109.129 116.366 107.788 116.856 106.578C117.347 105.368 118.328 104.453 119.538 103.962C120.127 103.733 120.748 103.602 121.369 103.602C122.023 103.602 122.677 103.733 123.299 103.995C124.476 104.518 125.392 105.434 125.882 106.644C125.882 106.676 125.882 106.676 125.882 106.709C125.882 106.742 125.915 106.742 125.915 106.742C126.405 107.952 126.405 109.26 125.882 110.437ZM160.253 96.7347C159.174 99.2201 156.296 100.365 153.81 99.3182C152.6 98.7949 151.685 97.8138 151.227 96.6693C151.227 96.6365 151.227 96.6366 151.227 96.6038C151.227 96.5711 151.194 96.5711 151.194 96.5711C150.736 95.4265 150.736 94.0857 151.26 92.8757C152.339 90.3903 155.217 89.2457 157.702 90.2922C160.155 91.3387 161.332 94.2492 160.253 96.7347Z" fill="white"/>
</g>
</g>
<defs>
<clipPath id="clip0_81_2205">
<rect width="195" height="195" fill="white"/>
</clipPath>
<clipPath id="clip1_81_2205">
<rect width="195" height="195" fill="white"/>
</clipPath>
</defs>
</svg>
