<svg width="188" height="188" viewBox="0 0 188 188" fill="none" xmlns="http://www.w3.org/2000/svg">
<g clip-path="url(#clip0_81_1825)">
<path d="M93.9996 12.8867C49.0843 12.8867 12.8867 49.0843 12.8867 93.9996C12.8867 138.915 49.2738 175.113 93.9996 175.113C138.915 175.113 175.113 138.725 175.113 93.9996C175.302 49.0843 138.915 12.8867 93.9996 12.8867Z" fill="#830051"/>
<path d="M93.9998 78.0792C89.4514 78.0792 84.903 76.9421 81.1127 74.6679C73.153 70.1195 68.2256 61.4018 68.2256 52.305C68.2256 38.0913 79.7861 26.3413 94.1893 26.3413C108.593 26.3413 119.963 37.9018 119.963 52.1155C119.963 61.4018 115.036 69.93 107.076 74.4784C103.097 76.9421 98.5482 78.0792 93.9998 78.0792ZM93.9998 27.2889C80.3546 27.2889 69.1732 38.4703 69.1732 52.1155C69.1732 61.0228 73.9111 69.172 81.4917 73.5308C85.282 75.6155 89.4514 76.9421 93.8103 76.9421C98.1691 76.9421 102.528 75.805 106.129 73.5308C113.709 69.172 118.447 60.8332 118.447 52.1155C118.826 38.4703 107.645 27.2889 93.9998 27.2889Z" fill="white" stroke="white" stroke-width="0.501554" stroke-miterlimit="10"/>
<path d="M55.9071 144.033C41.6934 144.033 29.9434 132.473 29.9434 118.07C29.9434 103.666 41.6934 92.2954 55.9071 92.2954C60.4555 92.2954 65.0038 93.4325 68.7942 95.7067C76.7538 100.255 81.6813 108.973 81.6813 118.07C81.8708 132.473 70.3103 144.033 55.9071 144.033ZM55.9071 93.243C42.2619 93.243 31.0805 104.424 31.0805 118.07C31.0805 131.715 42.2619 142.896 55.9071 142.896C69.5522 142.896 80.7337 131.715 80.7337 118.07C80.7337 109.162 75.9958 101.013 68.4151 96.6543C64.6248 94.3801 60.2659 93.243 55.9071 93.243Z" fill="white" stroke="white" stroke-width="0.501554" stroke-miterlimit="10"/>
<path d="M132.093 144.033C117.879 144.033 106.129 132.473 106.129 118.07C106.129 108.783 111.056 100.255 119.016 95.7067C122.996 93.4325 127.355 92.2954 131.903 92.2954C146.117 92.2954 157.867 103.856 157.867 118.259C157.867 132.662 146.306 144.033 132.093 144.033ZM132.093 93.243C127.734 93.243 123.375 94.3801 119.774 96.6543C112.193 101.013 107.456 109.352 107.456 118.07C107.456 131.715 118.637 142.896 132.282 142.896C145.927 142.896 157.109 131.715 157.109 118.07C157.109 104.424 145.738 93.243 132.093 93.243Z" fill="white" stroke="white" stroke-width="0.501554" stroke-miterlimit="10"/>
<path d="M106.697 118.638H81.3022L80.7336 118.07C80.7336 109.163 75.9957 101.013 68.4151 96.6546L68.2256 95.8965L80.9232 73.9127L81.6812 73.7231C85.4715 75.8078 89.6409 77.1344 93.9998 77.1344C98.3586 77.1344 102.718 75.9973 106.318 73.7231L107.076 73.9127L119.774 95.8965V96.6546C112.193 101.013 107.455 109.352 107.455 118.07L106.697 118.638ZM81.8707 117.501H106.318C106.508 108.594 111.246 100.445 118.826 95.8965L106.697 74.8602C102.907 76.9449 98.5482 78.082 94.1893 78.082C89.8304 78.082 85.4715 76.9449 81.6812 74.8602L69.5522 95.8965C76.9433 100.634 81.6812 108.784 81.8707 117.501Z" fill="white" stroke="white" stroke-width="0.501554" stroke-miterlimit="10"/>
<mask id="mask0_81_1825" style="mask-type:luminance" maskUnits="userSpaceOnUse" x="68" y="26" width="52" height="52">
<path d="M119.395 52.1183C119.395 61.4046 114.278 69.7433 106.697 74.1022C102.907 76.1869 98.548 77.5135 93.9996 77.5135C89.4513 77.5135 85.0924 76.1869 81.3021 74.1022C73.7214 69.7433 68.6045 61.5941 68.6045 52.1183C68.6045 38.0941 79.9755 26.7231 93.9996 26.7231C108.024 26.9127 119.395 38.0941 119.395 52.1183Z" fill="white"/>
</mask>
<g mask="url(#mask0_81_1825)">
<path d="M104.233 37.5244L104.044 36.9559C102.717 32.7865 98.9269 29.7543 94.3785 29.7543C90.2091 29.7543 86.6083 32.218 85.0922 36.1978L84.9027 36.7664L83.9551 36.3874L84.1446 35.8188C85.8502 31.4599 89.8301 28.6172 94.568 28.6172C99.4954 28.6172 103.854 31.839 105.181 36.5769L105.37 37.1454L104.233 37.5244Z" fill="white" stroke="white" stroke-width="0.250777" stroke-miterlimit="10"/>
<path d="M94.5683 51.1699C91.3466 51.1699 88.3143 49.8432 86.2296 47.3795L85.8506 47.0005L86.6087 46.2424L86.9877 46.6215C88.8828 48.8957 91.7256 50.0328 94.5683 50.0328C97.7901 50.0328 100.822 48.5166 102.718 45.8634L103.097 45.4844L104.044 46.0529L103.665 46.432C101.58 49.2747 98.1691 51.1699 94.5683 51.1699Z" fill="white" stroke="white" stroke-width="0.250777" stroke-miterlimit="10"/>
<path d="M86.6084 47.5685L86.2294 47.1895C84.5238 45.1048 83.5762 42.6411 83.5762 39.9878C83.5762 38.6612 83.7657 37.3346 84.3342 36.008L84.5238 35.4395L85.4713 35.8185L85.2818 36.387C84.9028 37.5241 84.5238 38.8507 84.5238 39.9878C84.5238 42.4515 85.4713 44.7257 86.9875 46.6209L87.3665 46.9999L86.6084 47.5685Z" fill="white" stroke="white" stroke-width="0.250777" stroke-miterlimit="10"/>
<path d="M103.285 46.8097L102.338 46.2411L102.717 45.8621C103.854 44.1565 104.612 42.0718 104.612 39.9871C104.612 39.0395 104.423 38.0919 104.233 37.1444L104.044 36.5758L105.181 36.1968L105.37 36.7653C105.749 37.9024 105.939 38.85 105.939 39.9871C105.939 42.2613 105.181 44.5355 103.854 46.4306L103.285 46.8097Z" fill="white" stroke="white" stroke-width="0.250777" stroke-miterlimit="10"/>
</g>
<mask id="mask1_81_1825" style="mask-type:luminance" maskUnits="userSpaceOnUse" x="68" y="26" width="52" height="52">
<path d="M119.395 52.1183C119.395 61.4046 114.278 69.7433 106.697 74.1022C102.907 76.1869 98.548 77.5135 93.9996 77.5135C89.4513 77.5135 85.0924 76.1869 81.3021 74.1022C73.7214 69.7433 68.6045 61.5941 68.6045 52.1183C68.6045 38.0941 79.9755 26.7231 93.9996 26.7231C108.024 26.9127 119.395 38.0941 119.395 52.1183Z" fill="white"/>
</mask>
<g mask="url(#mask1_81_1825)">
<path d="M94.3783 79.4086C78.0799 79.4086 75.6162 71.4489 75.6162 71.2594V71.0699C75.6162 70.8804 75.9952 51.1707 93.2412 50.2231H93.8098C93.9993 50.2231 94.1888 50.2231 94.5678 50.2231H95.1364C112.382 51.1707 112.761 70.8804 112.761 71.0699V71.2594C112.572 71.4489 110.677 79.4086 94.3783 79.4086ZM76.5638 70.8804C76.7533 71.6385 79.7856 78.2715 94.3783 78.2715C108.971 78.2715 111.245 71.6385 111.435 70.8804C111.435 70.3119 111.245 65.574 109.161 61.0256C106.128 54.582 101.201 51.3602 93.9993 51.1707C86.9872 51.3602 81.8702 54.582 78.838 61.0256C76.9428 65.574 76.5638 70.1223 76.5638 70.8804Z" fill="white" stroke="white" stroke-width="0.250777" stroke-miterlimit="10"/>
</g>
<mask id="mask2_81_1825" style="mask-type:luminance" maskUnits="userSpaceOnUse" x="68" y="26" width="52" height="52">
<path d="M119.395 52.1183C119.395 61.4046 114.278 69.7433 106.697 74.1022C102.907 76.1869 98.548 77.5135 93.9996 77.5135C89.4513 77.5135 85.0924 76.1869 81.3021 74.1022C73.7214 69.7433 68.6045 61.5941 68.6045 52.1183C68.6045 38.0941 79.9755 26.7231 93.9996 26.7231C108.024 26.9127 119.395 38.0941 119.395 52.1183Z" fill="white"/>
</mask>
<g mask="url(#mask2_81_1825)">
<path d="M84.9028 68.6073C84.1447 68.6073 83.5762 68.0388 83.5762 67.2807C83.5762 66.5227 84.1447 65.9541 84.9028 65.9541C85.6609 65.9541 86.2294 66.5227 86.2294 67.2807C86.2294 68.0388 85.6609 68.6073 84.9028 68.6073ZM84.9028 67.2807C84.7133 67.6597 85.0923 67.6597 84.9028 67.2807C85.0923 67.2807 85.0923 67.2807 84.9028 67.2807Z" fill="white"/>
<path d="M84.9028 67.2807C84.7133 67.6597 85.0923 67.6597 84.9028 67.2807ZM84.9028 67.2807C85.0923 67.2807 85.0923 67.2807 84.9028 67.2807ZM84.9028 68.6073C84.1447 68.6073 83.5762 68.0388 83.5762 67.2807C83.5762 66.5227 84.1447 65.9541 84.9028 65.9541C85.6609 65.9541 86.2294 66.5227 86.2294 67.2807C86.2294 68.0388 85.6609 68.6073 84.9028 68.6073Z" stroke="white" stroke-width="0.250777" stroke-miterlimit="10"/>
</g>
<mask id="mask3_81_1825" style="mask-type:luminance" maskUnits="userSpaceOnUse" x="68" y="26" width="52" height="52">
<path d="M119.395 52.1183C119.395 61.4046 114.278 69.7433 106.697 74.1022C102.907 76.1869 98.548 77.5135 93.9996 77.5135C89.4513 77.5135 85.0924 76.1869 81.3021 74.1022C73.7214 69.7433 68.6045 61.5941 68.6045 52.1183C68.6045 38.0941 79.9755 26.7231 93.9996 26.7231C108.024 26.9127 119.395 38.0941 119.395 52.1183Z" fill="white"/>
</mask>
<g mask="url(#mask3_81_1825)">
<path d="M87.935 68.6073C87.1769 68.6073 86.6084 68.0388 86.6084 67.2807C86.6084 66.5227 87.1769 65.9541 87.935 65.9541C88.6931 65.9541 89.2616 66.5227 89.2616 67.2807C89.2616 68.0388 88.5036 68.6073 87.935 68.6073ZM87.935 67.2807C87.7455 67.2807 87.7455 67.2807 87.935 67.2807C87.7455 67.6597 88.1245 67.6597 87.935 67.2807Z" fill="white"/>
<path d="M87.935 67.2807C87.7455 67.2807 87.7455 67.2807 87.935 67.2807ZM87.935 67.2807C87.7455 67.6597 88.1245 67.6597 87.935 67.2807ZM87.935 68.6073C87.1769 68.6073 86.6084 68.0388 86.6084 67.2807C86.6084 66.5227 87.1769 65.9541 87.935 65.9541C88.6931 65.9541 89.2616 66.5227 89.2616 67.2807C89.2616 68.0388 88.5036 68.6073 87.935 68.6073Z" stroke="white" stroke-width="0.250777" stroke-miterlimit="10"/>
</g>
<mask id="mask4_81_1825" style="mask-type:luminance" maskUnits="userSpaceOnUse" x="68" y="26" width="52" height="52">
<path d="M119.395 52.1183C119.395 61.4046 114.278 69.7433 106.697 74.1022C102.907 76.1869 98.548 77.5135 93.9996 77.5135C89.4513 77.5135 85.0924 76.1869 81.3021 74.1022C73.7214 69.7433 68.6045 61.5941 68.6045 52.1183C68.6045 38.0941 79.9755 26.7231 93.9996 26.7231C108.024 26.9127 119.395 38.0941 119.395 52.1183Z" fill="white"/>
</mask>
<g mask="url(#mask4_81_1825)">
<path d="M85.4707 68.0377H81.6804L81.1118 67.6587C81.1118 67.6587 79.7852 59.5095 86.0393 56.0982L86.6078 55.9087L87.1764 56.8563L86.6078 57.0458C81.6804 59.699 81.8699 65.195 82.0594 66.9006H85.2812V68.0377H85.4707Z" fill="white" stroke="white" stroke-width="0.250777" stroke-miterlimit="10"/>
</g>
<mask id="mask5_81_1825" style="mask-type:luminance" maskUnits="userSpaceOnUse" x="68" y="26" width="52" height="52">
<path d="M119.395 52.1183C119.395 61.4046 114.278 69.7433 106.697 74.1022C102.907 76.1869 98.548 77.5135 93.9996 77.5135C89.4513 77.5135 85.0924 76.1869 81.3021 74.1022C73.7214 69.7433 68.6045 61.5941 68.6045 52.1183C68.6045 38.0941 79.9755 26.7231 93.9996 26.7231C108.024 26.9127 119.395 38.0941 119.395 52.1183Z" fill="white"/>
</mask>
<g mask="url(#mask5_81_1825)">
<path d="M91.1572 68.0377H87.3668V66.9006H90.5886C90.7781 65.195 90.9677 59.699 86.0402 57.0458L85.4717 56.8563L86.0402 55.9087L86.6088 56.0982C93.0523 59.5095 91.5362 67.4692 91.5362 67.6587L91.1572 68.0377Z" fill="white" stroke="white" stroke-width="0.250777" stroke-miterlimit="10"/>
</g>
<mask id="mask6_81_1825" style="mask-type:luminance" maskUnits="userSpaceOnUse" x="68" y="26" width="52" height="52">
<path d="M119.395 52.1183C119.395 61.4046 114.278 69.7433 106.697 74.1022C102.907 76.1869 98.548 77.5135 93.9996 77.5135C89.4513 77.5135 85.0924 76.1869 81.3021 74.1022C73.7214 69.7433 68.6045 61.5941 68.6045 52.1183C68.6045 38.0941 79.9755 26.7231 93.9996 26.7231C108.024 26.9127 119.395 38.0941 119.395 52.1183Z" fill="white"/>
</mask>
<g mask="url(#mask6_81_1825)">
<path d="M86.9877 56.856H85.8506V56.2874C85.8506 54.3922 86.6087 52.6866 88.1248 51.36L88.5038 50.981L89.2619 51.739L88.8828 52.1181C87.5562 53.2552 86.7982 54.7713 86.7982 56.2874V56.856H86.9877Z" fill="white" stroke="white" stroke-width="0.250777" stroke-miterlimit="10"/>
</g>
<mask id="mask7_81_1825" style="mask-type:luminance" maskUnits="userSpaceOnUse" x="68" y="26" width="52" height="52">
<path d="M119.395 52.1183C119.395 61.4046 114.278 69.7433 106.697 74.1022C102.907 76.1869 98.548 77.5135 93.9996 77.5135C89.4513 77.5135 85.0924 76.1869 81.3021 74.1022C73.7214 69.7433 68.6045 61.5941 68.6045 52.1183C68.6045 38.0941 79.9755 26.7231 93.9996 26.7231C108.024 26.9127 119.395 38.0941 119.395 52.1183Z" fill="white"/>
</mask>
<g mask="url(#mask7_81_1825)">
<path d="M102.718 58.751H101.581V58.1824C101.581 56.0978 101.012 54.0131 99.8751 52.3074L99.4961 51.9284L100.444 51.3599L100.823 51.7389C101.96 53.6341 102.718 55.7187 102.718 58.1824V58.751Z" fill="white" stroke="white" stroke-width="0.250777" stroke-miterlimit="10"/>
</g>
<mask id="mask8_81_1825" style="mask-type:luminance" maskUnits="userSpaceOnUse" x="68" y="26" width="52" height="52">
<path d="M119.395 52.1183C119.395 61.4046 114.278 69.7433 106.697 74.1022C102.907 76.1869 98.548 77.5135 93.9996 77.5135C89.4513 77.5135 85.0924 76.1869 81.3021 74.1022C73.7214 69.7433 68.6045 61.5941 68.6045 52.1183C68.6045 38.0941 79.9755 26.7231 93.9996 26.7231C108.024 26.9127 119.395 38.0941 119.395 52.1183Z" fill="white"/>
</mask>
<g mask="url(#mask8_81_1825)">
<path d="M102.149 62.5407C100.823 62.5407 99.6855 61.4036 99.6855 60.077C99.6855 58.7504 100.823 57.6133 102.149 57.6133C103.476 57.6133 104.613 58.7504 104.613 60.077C104.613 61.4036 103.665 62.5407 102.149 62.5407ZM102.149 58.7504C101.391 58.7504 100.823 59.3189 100.823 60.077C100.823 60.8351 101.391 61.4036 102.149 61.4036C102.907 61.4036 103.476 60.8351 103.476 60.077C103.665 59.3189 102.907 58.7504 102.149 58.7504Z" fill="white" stroke="white" stroke-width="0.250777" stroke-miterlimit="10"/>
</g>
<path d="M119.395 52.1183C119.395 61.4046 114.278 69.7433 106.697 74.1022C102.907 76.1869 98.548 77.5135 93.9996 77.5135C89.4513 77.5135 85.0924 76.1869 81.3021 74.1022C73.7214 69.7433 68.6045 61.5941 68.6045 52.1183C68.6045 38.0941 79.9755 26.7231 93.9996 26.7231C108.024 26.9127 119.395 38.0941 119.395 52.1183Z" stroke="white" stroke-width="0.250777" stroke-miterlimit="10"/>
<mask id="mask9_81_1825" style="mask-type:luminance" maskUnits="userSpaceOnUse" x="30" y="92" width="52" height="52">
<path d="M81.302 118.069C81.302 127.355 76.1851 135.694 68.6045 140.053C64.8141 142.138 60.4553 143.464 55.9069 143.464C51.3585 143.464 46.9996 142.138 43.2093 140.053C35.6287 135.694 30.5117 127.545 30.5117 118.069C30.5117 104.045 41.8827 92.6738 55.9069 92.6738C69.9311 92.8633 81.302 104.045 81.302 118.069Z" fill="white"/>
</mask>
<g mask="url(#mask9_81_1825)">
<path d="M66.1405 103.475L65.951 102.907C64.6244 98.7372 60.8341 95.705 56.2857 95.705C52.1163 95.705 48.5155 98.1687 46.9994 102.149L46.8099 102.717L45.8623 102.338L46.0518 101.769C47.7575 97.4106 51.7373 94.5679 56.4752 94.5679C61.4026 94.5679 65.7615 97.7896 67.0881 102.528L67.2776 103.096L66.1405 103.475Z" fill="white" stroke="white" stroke-width="0.250777" stroke-miterlimit="10"/>
<path d="M56.4756 116.931C53.2538 116.931 50.2215 115.604 48.1368 113.141L47.7578 112.762L48.5159 112.004L48.8949 112.383C50.7901 114.657 53.6328 115.794 56.4756 115.794C59.6973 115.794 62.7296 114.278 64.6247 111.625L65.0038 111.246L65.9514 111.814L65.5723 112.193C63.2981 115.225 59.8868 116.931 56.4756 116.931Z" fill="white" stroke="white" stroke-width="0.250777" stroke-miterlimit="10"/>
<path d="M48.3262 113.519L47.9472 113.14C46.2415 111.055 45.2939 108.592 45.2939 105.939C45.2939 104.612 45.4835 103.285 46.052 101.959L46.2415 101.39L47.1891 101.769L46.9996 102.338C46.6206 103.475 46.2415 104.801 46.2415 105.939C46.2415 108.402 47.1891 110.676 48.7052 112.572L49.0843 112.951L48.3262 113.519Z" fill="white" stroke="white" stroke-width="0.250777" stroke-miterlimit="10"/>
<path d="M65.1927 112.76L64.2451 112.192L64.6241 111.813C65.7612 110.107 66.5193 108.022 66.5193 105.938C66.5193 104.99 66.3298 104.043 66.1403 103.095L65.9508 102.526L67.0879 102.147L67.2774 102.716C67.6564 103.853 67.8459 104.801 67.8459 105.938C67.8459 108.212 67.0879 110.486 65.7612 112.381L65.1927 112.76Z" fill="white" stroke="white" stroke-width="0.250777" stroke-miterlimit="10"/>
<path d="M56.2855 145.359C39.9871 145.359 37.5234 137.4 37.5234 137.21V137.021C37.5234 136.831 37.9025 117.121 55.1484 116.174H55.717C55.9065 116.174 56.096 116.174 56.4751 116.174H57.0436C74.2896 117.121 74.6686 136.831 74.6686 137.021V137.21C74.2896 137.4 72.5839 145.359 56.2855 145.359ZM38.471 136.831C38.6605 137.589 41.6928 144.222 56.2855 144.222C70.8783 144.222 73.1525 137.589 73.342 136.831C73.342 136.263 73.1525 131.525 71.0678 126.976C68.0355 120.533 63.1081 117.311 55.9065 117.121C48.8944 117.311 43.7775 120.533 40.7452 126.976C38.6605 131.525 38.471 136.073 38.471 136.831Z" fill="white" stroke="white" stroke-width="0.250777" stroke-miterlimit="10"/>
</g>
<path d="M81.302 118.069C81.302 127.355 76.1851 135.694 68.6045 140.053C64.8141 142.138 60.4553 143.464 55.9069 143.464C51.3585 143.464 46.9996 142.138 43.2093 140.053C35.6287 135.694 30.5117 127.545 30.5117 118.069C30.5117 104.045 41.8827 92.6738 55.9069 92.6738C69.9311 92.8633 81.302 104.045 81.302 118.069Z" stroke="white" stroke-width="0.250777" stroke-miterlimit="10"/>
<mask id="mask10_81_1825" style="mask-type:luminance" maskUnits="userSpaceOnUse" x="106" y="92" width="52" height="52">
<path d="M157.488 118.258C157.488 127.545 152.371 135.883 144.79 140.242C141 142.327 136.641 143.654 132.092 143.654C127.544 143.654 123.185 142.327 119.395 140.242C111.814 135.883 106.697 127.734 106.697 118.258C106.697 104.234 118.068 92.8633 132.092 92.8633C146.117 92.8633 157.488 104.234 157.488 118.258Z" fill="white"/>
</mask>
<g mask="url(#mask10_81_1825)">
<path d="M142.326 103.665L142.137 103.096C140.81 98.9267 137.02 95.8944 132.471 95.8944C128.302 95.8944 124.701 98.3581 123.185 102.338L122.995 102.907L122.048 102.527L122.237 101.959C123.943 97.6001 127.923 94.7573 132.661 94.7573C137.588 94.7573 141.947 97.9791 143.274 102.717L143.463 103.286L142.326 103.665Z" fill="white" stroke="white" stroke-width="0.250777" stroke-miterlimit="10"/>
<path d="M132.661 117.121C129.439 117.121 126.407 115.794 124.322 113.33L123.943 112.951L124.701 112.193L125.08 112.572C126.976 114.846 129.818 115.983 132.661 115.983C135.883 115.983 138.915 114.467 140.81 111.814L141.189 111.435L142.137 112.004L141.758 112.383C139.484 115.415 136.262 117.121 132.661 117.121Z" fill="white" stroke="white" stroke-width="0.250777" stroke-miterlimit="10"/>
<path d="M124.512 113.709L124.133 113.33C122.427 111.245 121.479 108.781 121.479 106.128C121.479 104.801 121.669 103.475 122.238 102.148L122.427 101.58L123.375 101.959L123.185 102.527C122.806 103.664 122.427 104.991 122.427 106.128C122.427 108.592 123.375 110.866 124.891 112.761L125.27 113.14L124.512 113.709Z" fill="white" stroke="white" stroke-width="0.250777" stroke-miterlimit="10"/>
<path d="M141.378 112.95L140.431 112.381L140.81 112.002C141.947 110.297 142.705 108.212 142.705 106.127C142.705 105.18 142.515 104.232 142.326 103.284L142.136 102.716L143.273 102.337L143.463 102.905C143.842 104.043 144.031 104.99 144.031 106.127C144.031 108.401 143.273 110.676 141.947 112.571L141.378 112.95Z" fill="white" stroke="white" stroke-width="0.250777" stroke-miterlimit="10"/>
<path d="M132.471 145.359C116.173 145.359 113.709 137.4 113.709 137.21V137.021C113.709 136.831 114.088 117.121 131.334 116.174H131.903C132.092 116.174 132.282 116.174 132.661 116.174H133.229C150.475 117.121 150.854 136.831 150.854 137.021V137.21C150.665 137.589 148.769 145.359 132.471 145.359ZM114.657 137.021C114.846 137.779 117.878 144.412 132.471 144.412C147.253 144.412 149.338 137.779 149.528 137.021C149.528 136.452 149.338 131.714 147.253 127.166C144.221 120.722 139.294 117.5 132.092 117.311C125.08 117.5 119.963 120.722 116.931 127.166C114.846 131.714 114.657 136.263 114.657 137.021Z" fill="white" stroke="white" stroke-width="0.250777" stroke-miterlimit="10"/>
</g>
<path d="M157.488 118.258C157.488 127.545 152.371 135.883 144.79 140.242C141 142.327 136.641 143.654 132.092 143.654C127.544 143.654 123.185 142.327 119.395 140.242C111.814 135.883 106.697 127.734 106.697 118.258C106.697 104.234 118.068 92.8633 132.092 92.8633C146.117 92.8633 157.488 104.234 157.488 118.258Z" stroke="white" stroke-width="0.250777" stroke-miterlimit="10"/>
<path d="M60.0765 121.67C57.8023 121.67 56.0967 123.566 56.0967 125.65C56.0967 127.735 57.9918 129.63 60.0765 129.63C62.3507 129.63 64.0564 127.735 64.0564 125.65C64.0564 123.566 62.3507 121.67 60.0765 121.67ZM62.1612 126.408H60.6451V127.924H59.3185V126.408H57.8023V125.082H59.3185V123.566H60.6451V125.082H62.1612V126.408Z" fill="white"/>
<path d="M81.3057 76.9068C82.8569 76.9068 84.1143 75.6493 84.1143 74.0982C84.1143 72.547 82.8569 71.2896 81.3057 71.2896C79.7545 71.2896 78.4971 72.547 78.4971 74.0982C78.4971 75.6493 79.7545 76.9068 81.3057 76.9068Z" fill="white"/>
<path d="M106.697 76.5641C108.058 76.5641 109.161 75.4611 109.161 74.1004C109.161 72.7398 108.058 71.6367 106.697 71.6367C105.336 71.6367 104.233 72.7398 104.233 74.1004C104.233 75.4611 105.336 76.5641 106.697 76.5641Z" fill="white"/>
<path d="M106.888 120.533C108.248 120.533 109.351 119.43 109.351 118.07C109.351 116.709 108.248 115.606 106.888 115.606C105.527 115.606 104.424 116.709 104.424 118.07C104.424 119.43 105.527 120.533 106.888 120.533Z" fill="white"/>
<path d="M81.3026 120.533C82.6633 120.533 83.7663 119.43 83.7663 118.07C83.7663 116.709 82.6633 115.606 81.3026 115.606C79.9419 115.606 78.8389 116.709 78.8389 118.07C78.8389 119.43 79.9419 120.533 81.3026 120.533Z" fill="white"/>
<path d="M68.7948 98.5485C70.1554 98.5485 71.2585 97.4455 71.2585 96.0848C71.2585 94.7241 70.1554 93.6211 68.7948 93.6211C67.4341 93.6211 66.3311 94.7241 66.3311 96.0848C66.3311 97.4455 67.4341 98.5485 68.7948 98.5485Z" fill="white"/>
</g>
<defs>
<clipPath id="clip0_81_1825">
<rect width="188" height="188" fill="white"/>
</clipPath>
</defs>
</svg>
