<svg width="120" height="120" viewBox="0 0 120 120" fill="none" xmlns="http://www.w3.org/2000/svg">
<g clip-path="url(#clip0_80_182)">
<path d="M60 120C93.1371 120 120 93.1371 120 60C120 26.8629 93.1371 0 60 0C26.8629 0 0 26.8629 0 60C0 93.1371 26.8629 120 60 120Z" fill="white"/>
<path d="M62.7057 25.7303C62.3406 25.7303 61.9914 25.516 61.8327 25.1629L59.916 20.8057C59.7057 20.3256 59.9239 19.7621 60.4041 19.5517C60.8843 19.3414 61.4477 19.5597 61.6581 20.0398L63.5747 24.397C63.7851 24.8771 63.5668 25.4406 63.0866 25.651C62.9636 25.7065 62.8327 25.7303 62.7017 25.7303H62.7057Z" fill="#7E2755"/>
<path d="M71.0188 41.8692C70.6735 41.8692 70.3362 41.6787 70.1696 41.3493L63.6934 28.6192C63.4553 28.1509 63.6418 27.5755 64.11 27.3374C64.5783 27.0993 65.1537 27.2858 65.3918 27.7541L71.868 40.4842C72.1061 40.9525 71.9196 41.5279 71.4513 41.766C71.3124 41.8374 71.1656 41.8692 71.0188 41.8692Z" fill="#7E2755"/>
<path d="M51.1865 56.0436C51.0952 56.0436 51 56.0317 50.9087 56C50.4048 55.8452 50.123 55.3134 50.2778 54.8095L51.0318 52.3492C51.1865 51.8452 51.7183 51.5635 52.2222 51.7182C52.7262 51.873 53.0079 52.4047 52.8532 52.9087L52.0992 55.369C51.9722 55.7777 51.5952 56.0436 51.1905 56.0436H51.1865Z" fill="#7E2755"/>
<path d="M53.5957 48.1706C53.5044 48.1706 53.4092 48.1587 53.3179 48.1309C52.8139 47.9761 52.5322 47.4444 52.687 46.9404L54.2068 41.9761C54.3616 41.4721 54.8933 41.1904 55.3973 41.3452C55.9012 41.4999 56.183 42.0317 56.0282 42.5356L54.5084 47.4999C54.3814 47.9087 54.0044 48.1745 53.5997 48.1745L53.5957 48.1706Z" fill="#7E2755"/>
<path d="M52.6787 51.1668C52.5874 51.1668 52.4922 51.1549 52.4009 51.1232C51.897 50.9684 51.6152 50.4367 51.77 49.9327L51.893 49.524C52.0477 49.02 52.5795 48.7383 53.0835 48.893C53.5874 49.0478 53.8692 49.5795 53.7144 50.0835L53.5914 50.4922C53.4644 50.901 53.0874 51.1668 52.6827 51.1668H52.6787Z" fill="#7E2755"/>
<path d="M74.8841 43.9284C74.8841 43.9284 74.8445 43.9284 74.8246 43.9284L55.0667 42.7181C54.6738 42.6943 54.3405 42.4324 54.2175 42.0594L51.1064 32.4165C50.9516 31.9324 51.2016 31.4165 51.6659 31.238C51.6659 31.0951 51.7056 30.9522 51.777 30.8173C52.023 30.353 52.5984 30.1745 53.0627 30.4165L75.3286 42.1348C75.7254 42.3451 75.9238 42.8014 75.8008 43.234C75.6857 43.6467 75.3087 43.9284 74.8841 43.9284ZM55.8325 40.857L70.5191 41.7578L53.1778 32.6308L55.8325 40.857Z" fill="#7E2755"/>
<path d="M70.0356 55.7183C69.8134 55.7183 69.5872 55.6389 69.4086 55.4802L55.2936 43.0754C54.8967 42.7262 54.861 42.127 55.2063 41.7302C55.5555 41.3373 56.1547 41.2977 56.5515 41.6429L70.6666 54.0477C71.0634 54.3969 71.0991 54.9961 70.7539 55.3929C70.5674 55.6072 70.3015 55.7183 70.0396 55.7183H70.0356Z" fill="#7E2755"/>
<path d="M45.5195 43.2103C45.1981 43.2103 44.9005 43.0476 44.7219 42.7777C44.5354 42.4881 44.5155 42.119 44.6743 41.8174L50.4084 30.873C50.4322 30.8293 50.456 30.7896 50.4838 30.75L59.2259 18.9047C59.5394 18.4801 60.1346 18.3928 60.5592 18.7023C60.9838 19.0158 61.0711 19.6111 60.7616 20.0357L52.0632 31.8214L47.1544 41.1944L54.4957 40.6984C55.0195 40.6627 55.4759 41.0595 55.5116 41.5833C55.5473 42.1071 55.1505 42.5635 54.6267 42.5992L45.5909 43.2063C45.5711 43.2063 45.5473 43.2063 45.5274 43.2063L45.5195 43.2103Z" fill="#7E2755"/>
<path d="M60.5513 59.2856C60.4838 59.2856 60.4203 59.2777 60.3568 59.2658C60.2894 59.2817 60.2179 59.2896 60.1425 59.2856L57.7378 59.2341C55.7616 59.1904 53.829 58.4761 52.3013 57.2222L49.0711 54.5753C47.6187 53.3849 46.5989 51.7936 46.1187 49.9801L43.4084 39.7063C42.9878 38.115 43.0195 36.4444 43.4957 34.869L45.8092 27.2301C46.579 24.6864 48.4282 22.6428 50.8767 21.615L56.5711 19.2301C57.7576 18.7341 59.0116 18.4801 60.2973 18.4761H60.3528C61.6425 18.4722 62.9282 18.7261 64.1346 19.2301L69.829 21.615C72.2814 22.6388 74.1267 24.6864 74.8965 27.2301L77.21 34.869C77.6862 36.4444 77.7179 38.115 77.2973 39.7063L74.587 49.9801C74.1068 51.7976 73.087 53.3849 71.6346 54.5753L68.4044 57.2222C66.8767 58.4761 64.9441 59.1904 62.9679 59.2341L60.5671 59.2856C60.5671 59.2856 60.5513 59.2856 60.5473 59.2856H60.5513ZM60.3846 20.3491H60.3132C59.2695 20.3491 58.2576 20.5595 57.3013 20.9602L51.6068 23.3452C49.6743 24.1547 48.2179 25.7658 47.6108 27.7698L45.2973 35.4087C44.9203 36.6507 44.8965 37.9682 45.2298 39.2222L47.9401 49.496C48.3171 50.9285 49.1227 52.1825 50.2695 53.119L53.4997 55.7658C54.706 56.7539 56.2259 57.3174 57.7854 57.3531L60.1901 57.4047C60.2497 57.4047 60.3092 57.4126 60.3647 57.4245C60.4203 57.4126 60.4798 57.4047 60.5394 57.4047L62.9401 57.3531C64.4997 57.3174 66.0235 56.7579 67.2259 55.7658L70.456 53.119C71.6028 52.1785 72.4044 50.9245 72.7854 49.496L75.4957 39.2222C75.8251 37.9682 75.8013 36.6507 75.4282 35.4087L73.1147 27.7698C72.5076 25.7658 71.0513 24.1507 69.1187 23.3452L63.4243 20.9602C62.46 20.5555 61.4401 20.3491 60.3925 20.3491H60.3846Z" fill="#7E2755"/>
<path d="M96.599 89.4486C96.3252 89.4486 96.0514 89.3295 95.8649 89.1033L90.9324 83.139C90.599 82.7343 90.6546 82.1351 91.0593 81.7978C91.4641 81.4605 92.0633 81.52 92.4006 81.9248L97.3332 87.889C97.6665 88.2938 97.6109 88.893 97.2062 89.2303C97.0276 89.3771 96.8133 89.4486 96.599 89.4486Z" fill="#7E2755"/>
<path d="M89.4523 80.8054C89.1785 80.8054 88.9047 80.6864 88.7182 80.4602L86.738 78.0634C86.4047 77.6586 86.4602 77.0594 86.865 76.7221C87.2698 76.3848 87.869 76.4443 88.2063 76.8491L90.1864 79.2459C90.5198 79.6507 90.4642 80.2499 90.0595 80.5872C89.8809 80.734 89.6666 80.8054 89.4523 80.8054Z" fill="#7E2755"/>
<path d="M83.1147 73.139C82.8409 73.139 82.567 73.0199 82.3805 72.7937L78.3845 67.9564C78.0512 67.5517 78.1067 66.9525 78.5115 66.6152C78.9163 66.2779 79.5155 66.3374 79.8528 66.7421L83.8488 71.5794C84.1821 71.9842 84.1266 72.5834 83.7218 72.9207C83.5432 73.0675 83.329 73.139 83.1147 73.139Z" fill="#7E2755"/>
<path d="M85.5271 76.0598C85.2533 76.0598 84.9795 75.9408 84.793 75.7146L84.4636 75.3178C84.1303 74.913 84.1858 74.3138 84.5906 73.9765C84.9954 73.6392 85.5946 73.6987 85.9319 74.1035L86.2612 74.5003C86.5946 74.9051 86.539 75.5043 86.1342 75.8416C85.9557 75.9884 85.7414 76.0598 85.5271 76.0598Z" fill="#7E2755"/>
<path d="M98.595 90.7855C98.2339 90.7855 97.8926 90.5792 97.7299 90.2339L89.3291 72.0831C89.3133 72.0474 89.2974 72.0077 89.2855 71.968C88.968 70.9482 87.3093 69.1982 86.5156 69.0434C86.4839 69.0355 86.4482 69.0276 86.4164 69.0196L78.7339 66.6427C78.6228 66.6069 78.5117 66.599 78.3966 66.595L71.0831 66.6784C70.8847 66.6863 70.6783 66.6149 70.5117 66.4958C69.9204 66.0633 68.8133 63.1982 68.5712 61.099C68.3331 59.0633 68.7101 56.4958 68.849 55.5315C68.8688 55.4046 68.8807 55.3093 68.8887 55.2577C68.9164 54.7577 69.3331 54.3569 69.841 54.3569C70.349 54.3569 70.7934 54.7815 70.7934 55.3093C70.7934 55.4125 70.7815 55.5038 70.7379 55.8053C70.6069 56.7022 70.2577 59.0911 70.468 60.8807C70.6545 62.48 71.2855 64.0553 71.6267 64.7696L78.3807 64.6903C78.7021 64.6903 79.0077 64.7339 79.3053 64.8252L86.9442 67.1903C88.6109 67.5593 90.6069 69.9165 91.0871 71.3411L99.464 89.4403C99.6863 89.9165 99.476 90.4839 98.9998 90.7061C98.8688 90.7657 98.7339 90.7934 98.599 90.7934L98.595 90.7855Z" fill="#7E2755"/>
<path d="M62.0756 81.9879C61.8772 81.9879 61.6748 81.9244 61.5082 81.7974L41.2224 66.6783C40.8018 66.3648 40.7145 65.7656 41.028 65.345C41.3415 64.9244 41.9407 64.8371 42.3613 65.1506L62.0161 79.7974L77.4685 65.6744C77.8574 65.3212 78.4605 65.345 78.8137 65.7339C79.1669 66.1228 79.1431 66.726 78.7542 67.0791L62.7224 81.7339C62.5399 81.9006 62.3097 81.9839 62.0796 81.9839L62.0756 81.9879Z" fill="#7E2755"/>
<path d="M51.1464 94.6428C51.0869 94.6428 51.0234 94.6388 50.9639 94.6269C50.6266 94.5595 50.3527 94.3174 50.2416 93.992L46.5313 82.8849L41.8051 67.4722C41.6504 66.9682 41.9321 66.4365 42.4361 66.2817C42.94 66.1269 43.4718 66.4087 43.6266 66.9126L48.3448 82.3015L51.5154 91.7936L61.5789 80.0555C61.9202 79.6547 62.5234 79.6111 62.9202 79.9523C63.321 80.2936 63.3647 80.8968 63.0234 81.2936L51.8686 94.3095C51.6861 94.5238 51.4202 94.6428 51.1464 94.6428Z" fill="#7E2755"/>
<path d="M72.3772 82.9404C72.2621 82.9404 72.147 82.9205 72.0359 82.8769C71.5439 82.6864 71.2978 82.1388 71.4883 81.6467L77.5677 65.8055C77.7581 65.3134 78.3058 65.0674 78.7978 65.2578C79.2899 65.4483 79.5359 65.9959 79.3454 66.488L73.2661 82.3293C73.1193 82.7062 72.7581 82.9404 72.3772 82.9404Z" fill="#7E2755"/>
<path d="M98.4846 91.0277C98.3894 91.0277 98.2902 91.0119 98.1949 90.9801L72.314 82.6706C71.814 82.5079 71.5362 81.9722 71.6989 81.4722C71.8576 80.9722 72.3973 80.6944 72.8973 80.8571L98.7783 89.1666C99.2783 89.3293 99.556 89.865 99.3933 90.365C99.2624 90.7698 98.8894 91.0277 98.4886 91.0277H98.4846Z" fill="#7E2755"/>
<path d="M51.2584 94.7697C50.929 94.7697 50.6036 94.5951 50.429 94.2895C50.1671 93.8332 50.3298 93.2498 50.7862 92.9919L72.3536 80.7181C72.81 80.4562 73.3933 80.6189 73.6512 81.0752C73.9131 81.5316 73.7504 82.1149 73.2941 82.3728L51.7266 94.6466C51.5798 94.73 51.4171 94.7697 51.2584 94.7697Z" fill="#7E2755"/>
<path d="M23.4877 91.0398C23.1028 91.0398 22.7377 90.8017 22.5949 90.4207C22.4123 89.9287 22.6623 89.3811 23.1544 89.1946L46.2179 80.5953C46.7099 80.4128 47.2576 80.6628 47.4441 81.1549C47.6266 81.6469 47.3766 82.1946 46.8845 82.3811L23.8211 90.9803C23.7099 91.02 23.5988 91.0398 23.4877 91.0398Z" fill="#7E2755"/>
<path d="M39.2344 71.0834C39.032 71.0834 38.8296 71.0199 38.659 70.8889C38.2383 70.5714 38.159 69.9722 38.4764 69.5556L40.405 67.0159C40.7224 66.5953 41.3217 66.5159 41.7383 66.8333C42.159 67.1508 42.2383 67.75 41.9209 68.1667L39.9923 70.7064C39.8058 70.9524 39.5201 71.0834 39.2344 71.0834Z" fill="#7E2755"/>
<path d="M33.707 78.3609C33.5046 78.3609 33.3022 78.2975 33.1316 78.1665C32.711 77.849 32.6316 77.2498 32.9491 76.8332L36.3022 72.4205C36.6197 72.0038 37.2189 71.9205 37.6356 72.2379C38.0562 72.5554 38.1356 73.1546 37.8181 73.5713L34.4649 77.984C34.2784 78.23 33.9927 78.3609 33.707 78.3609Z" fill="#7E2755"/>
<path d="M31.1992 81.663C30.9968 81.663 30.7944 81.5995 30.6238 81.4685C30.2032 81.1511 30.1238 80.5518 30.4413 80.1352L30.7111 79.782C31.0286 79.3614 31.6278 79.282 32.0444 79.5995C32.4651 79.9169 32.5444 80.5161 32.227 80.9328L31.9571 81.286C31.7706 81.532 31.4849 81.663 31.1992 81.663Z" fill="#7E2755"/>
<path d="M25.2822 89.4526C25.0798 89.4526 24.8774 89.3891 24.7068 89.2582C24.2862 88.9407 24.2068 88.3415 24.5243 87.9249L28.2425 83.032C28.56 82.6114 29.1592 82.532 29.5759 82.8495C29.9925 83.1669 30.0759 83.7661 29.7584 84.1828L26.0401 89.0757C25.8536 89.3217 25.5679 89.4526 25.2822 89.4526Z" fill="#7E2755"/>
<path d="M23.4246 91.0277C23.3095 91.0277 23.1944 91.0078 23.0794 90.9642C22.5873 90.7737 22.3452 90.2221 22.5357 89.734L29.6429 71.365C30.1071 69.9483 32.1151 67.5555 33.7976 67.1825L41.4365 64.8174C41.7381 64.7261 42.0516 64.6785 42.3611 64.6825L49.1151 64.7618C49.4563 64.0475 50.0873 62.4721 50.2698 60.8729C50.4762 59.0832 50.1309 56.6983 50 55.7975C49.9563 55.4959 49.9444 55.4047 49.9444 55.3015C49.9444 54.7737 50.369 54.3491 50.8968 54.3491C51.4246 54.3491 51.8214 54.7459 51.8492 55.2499C51.8532 55.3015 51.869 55.3967 51.8889 55.5237C52.0278 56.488 52.4048 59.0555 52.1667 61.0912C51.9206 63.1904 50.8175 66.0555 50.2262 66.488C50.0595 66.611 49.8611 66.6785 49.6548 66.6705L42.3413 66.5872C42.2262 66.5872 42.1111 66.6031 42 66.6348L34.3175 69.0118C34.2857 69.0237 34.254 69.0317 34.2183 69.0356C33.4246 69.1904 31.7659 70.9404 31.4484 71.9602C31.4405 71.9801 31.4365 71.9999 31.4286 72.0198L24.3095 90.4126C24.1627 90.7896 23.8016 91.0198 23.4206 91.0198L23.4246 91.0277Z" fill="#7E2755"/>
<path d="M52.2499 74.1903C51.9403 74.1903 51.6387 74.0395 51.4562 73.7656C51.1665 73.3291 51.2816 72.7379 51.7221 72.4442L68.8054 61.0553C69.2419 60.7656 69.8332 60.8807 70.1268 61.3212C70.4165 61.7577 70.3014 62.349 69.861 62.6426L52.7776 74.0315C52.6149 74.1387 52.4324 74.1903 52.2499 74.1903Z" fill="#7E2755"/>
</g>
<defs>
<clipPath id="clip0_80_182">
<rect width="120" height="120" fill="white"/>
</clipPath>
</defs>
</svg>
